<svg version="1.1" id="Layer_1" xmlns="http://www.w3.org/2000/svg" xmlns:xlink="http://www.w3.org/1999/xlink" x="0px" y="0px"
	 width="100%" viewBox="0 0 375 249" enable-background="new 0 0 375 249" xml:space="preserve">
<path fill="#F7F8FA" opacity="1.000000" stroke="none" 
	d="
M243.000000,250.000000 
	C163.333359,250.000000 84.166672,249.971680 5.000222,250.096100 
	C1.575996,250.101486 0.898641,249.424438 0.903927,245.999924 
	C1.027929,165.666809 1.027921,85.333412 0.903958,5.000293 
	C0.898674,1.576247 1.575737,0.901650 4.999941,0.904830 
	C127.333138,1.018427 249.666473,1.018412 371.999664,0.904885 
	C375.423004,0.901708 376.101379,1.575012 376.096100,4.999889 
	C375.972046,85.333000 375.972076,165.666397 376.096008,245.999512 
	C376.101288,249.423141 375.426483,250.110214 372.000000,250.098236 
	C329.167084,249.948288 286.333435,250.000000 243.000000,250.000000 
z"/>
<path fill="#D6EDEE" opacity="1.000000" stroke="none" 
	d="
M216.549026,113.710144 
	C217.377335,123.165215 212.086182,129.551086 205.365936,134.672546 
	C193.546967,143.679703 180.122864,148.560318 165.199158,150.225204 
	C153.571228,151.522400 142.928314,149.324661 132.032608,144.897949 
	C130.379501,139.788422 128.285446,135.319122 124.598541,131.412354 
	C122.046143,128.707718 122.143814,125.081818 124.144142,121.642418 
	C125.933586,118.565636 130.139236,115.996666 127.104576,111.612381 
	C124.119774,107.300117 119.264450,106.611588 114.652313,106.660637 
	C107.385216,106.737930 107.008652,107.090881 106.199814,100.027115 
	C104.989044,89.453148 106.936440,79.139908 110.676392,69.260101 
	C112.200554,65.233749 116.186958,64.065971 120.182808,64.079964 
	C123.456924,64.091423 125.207497,66.824402 124.682915,70.437317 
	C124.050133,74.795471 121.691643,78.529724 120.202950,82.579002 
	C119.222183,85.246712 118.164383,87.856834 118.392731,90.779236 
	C118.482895,91.933090 118.278633,93.323494 119.499474,93.893097 
	C121.068962,94.625351 122.391174,94.022583 123.341568,92.110504 
	C123.759224,91.040047 124.271324,90.521500 125.261887,89.978867 
	C127.501686,89.416565 128.727051,88.019394 129.990265,86.716286 
	C134.006180,82.573532 138.778595,79.706055 144.659882,77.975815 
	C146.723007,77.647003 148.367950,76.850517 150.481522,77.467102 
	C154.353653,84.171051 160.752731,86.575241 167.521408,88.980408 
	C172.131607,97.555649 169.314545,114.076042 162.146820,122.111786 
	C160.365326,124.109009 158.665878,126.148781 157.419327,128.503082 
	C156.118652,130.959595 155.500046,133.899094 157.258865,136.041122 
	C159.127731,138.317169 162.013870,137.986343 164.878571,136.262695 
	C167.656326,134.280289 170.024887,132.268707 171.640503,129.810959 
	C176.220093,122.844383 182.996841,119.506027 190.749176,118.309135 
	C199.283524,116.991493 207.823074,115.828506 216.549026,113.710144 
z"/>
<path fill="#D6EDEE" opacity="1.000000" stroke="none" 
	d="
M169.868164,90.234230 
	C181.087418,90.837570 191.880447,92.253464 202.310974,95.696419 
	C209.504379,98.070854 214.286087,103.054024 217.797211,109.906761 
	C218.176285,110.317726 218.236038,110.572044 218.093536,111.161163 
	C210.804993,116.696640 202.292358,116.784531 194.138596,117.841423 
	C184.820618,119.049210 176.840408,122.107628 171.436813,130.348557 
	C169.909714,132.677521 167.603882,134.487106 165.139221,136.579285 
	C162.296814,138.138611 159.748581,138.756485 157.502975,136.445755 
	C155.128738,134.002686 155.882690,131.180603 157.150787,128.579727 
	C158.306320,126.209709 159.883255,124.085579 161.785904,122.186348 
	C166.701965,117.279060 169.235657,111.443161 169.077682,104.338104 
	C168.975403,99.737846 168.385101,95.075348 169.868164,90.234230 
z"/>
<path fill="#D6EDEE" opacity="1.000000" stroke="none" 
	d="
M125.835999,90.838585 
	C125.127922,91.081001 124.732933,91.171669 124.164619,91.371002 
	C123.306564,93.726341 121.711388,94.932510 119.511208,94.215820 
	C117.526329,93.569237 118.096046,91.452156 118.030159,89.848427 
	C117.917099,87.095963 119.075851,84.666115 120.149300,82.240837 
	C121.899132,78.287407 123.877258,74.409874 124.747864,70.142380 
	C125.603317,65.949196 123.546402,63.743248 119.276718,64.032181 
	C114.543991,64.352448 111.404373,66.967125 109.896049,71.524101 
	C105.392075,85.131630 104.884155,98.876282 108.150177,112.813248 
	C108.557961,114.553329 109.311943,116.330093 108.473587,118.551270 
	C106.149780,119.176727 105.471794,117.582214 104.507896,116.200836 
	C98.031807,106.919769 93.911087,96.678986 92.134857,85.533035 
	C89.805794,70.917976 103.624123,54.842617 118.081589,54.939762 
	C122.472298,54.969269 125.794670,57.164150 128.825470,59.615849 
	C134.886765,64.519012 140.831207,69.613647 145.946442,76.006325 
	C146.000931,76.829002 145.790710,77.239166 145.088943,77.715820 
	C136.757202,79.519646 131.615402,85.339134 125.835999,90.838585 
z"/>
<path fill="#4A7C95" opacity="1.000000" stroke="none" 
	d="
M108.466949,119.176849 
	C104.040077,103.012955 103.395622,87.169586 108.841629,71.406052 
	C110.768631,65.828346 114.320328,63.101830 119.773727,62.957928 
	C124.430252,62.835056 126.547791,65.100548 125.877213,69.768440 
	C125.379097,73.235878 123.988083,76.439926 122.483658,79.594955 
	C120.989853,82.727730 119.279320,85.813545 119.039101,89.376671 
	C118.942291,90.812538 118.275276,92.723343 119.576225,93.569519 
	C121.094986,94.557350 122.118713,92.595581 123.674202,91.696487 
	C124.471397,91.432602 124.951492,91.385513 125.431587,91.338432 
	C125.487335,94.520599 122.783112,95.139709 120.708183,95.958565 
	C118.524452,96.820366 117.271645,95.374390 117.005714,93.200150 
	C116.548981,89.466034 117.350807,85.958534 118.832436,82.518745 
	C120.538666,78.557503 122.757568,74.787796 123.631027,70.498665 
	C124.503990,66.211983 122.843414,64.416519 118.575172,65.193642 
	C115.355934,65.779778 112.415825,67.034187 111.310242,70.504242 
	C108.049362,80.739021 106.344513,91.157944 107.412041,101.960518 
	C107.732994,105.208313 108.559448,106.728577 112.243584,105.916496 
	C116.385605,105.003502 120.553291,105.613953 124.413094,107.489090 
	C129.816864,110.114304 130.869461,114.347488 127.418892,119.271347 
	C126.370270,120.767708 125.070320,122.119942 124.219574,123.716248 
	C122.501099,126.940727 124.022858,129.483002 126.375275,131.673248 
	C129.970627,135.020737 132.163437,138.940872 131.645081,144.429413 
	C129.639618,148.144623 130.747208,150.424316 133.656189,152.716187 
	C157.606277,171.585617 183.712006,174.970917 212.282166,163.881958 
	C213.179596,163.447830 213.615585,163.534866 213.958557,164.501617 
	C192.276688,175.060486 170.459641,174.834839 148.935059,164.846832 
	C129.069122,155.628448 115.951462,140.039047 108.466949,119.176849 
z"/>
<path fill="#3B718C" opacity="1.000000" stroke="none" 
	d="
M141.630463,209.666412 
	C140.762878,211.695724 140.095871,213.394073 139.351730,215.057922 
	C139.173691,215.455994 138.738663,215.739120 137.963058,216.561600 
	C136.196564,212.547745 134.562988,208.835892 132.631287,204.446655 
	C130.740707,208.863449 129.147873,212.584656 126.972862,217.665970 
	C122.739769,207.173431 118.964081,197.814667 115.081810,188.191696 
	C125.803207,186.134979 122.327972,197.065170 127.491676,200.604584 
	C129.108673,196.601501 130.685303,192.698349 132.603317,187.950058 
	C134.614166,192.745834 136.350952,196.887985 138.389755,201.750443 
	C139.849930,198.077454 141.274033,195.255478 142.086212,192.267212 
	C143.197891,188.177017 145.544205,186.958481 150.077072,188.390930 
	C147.317062,195.373077 144.559921,202.347946 141.630463,209.666412 
z"/>
<path fill="#3B718C" opacity="1.000000" stroke="none" 
	d="
M85.767395,188.889328 
	C87.708862,193.027527 89.388504,196.966995 91.416801,201.724182 
	C92.850716,198.101837 94.222389,195.320694 95.049057,192.386017 
	C96.250130,188.122192 98.651764,186.755905 103.122055,188.475082 
	C99.418343,197.683273 95.720253,206.877487 91.827148,216.556549 
	C88.280579,213.101410 88.274399,208.353409 85.435509,204.898712 
	C83.739861,208.864243 82.135925,212.615295 79.972565,217.674683 
	C75.748726,207.210526 72.007523,197.942062 68.146400,188.376495 
	C72.209122,187.207626 74.962044,187.525665 76.133232,192.100769 
	C76.861290,194.944809 78.294487,197.608307 79.627739,200.885056 
	C82.864784,197.033020 83.181580,192.354080 85.767395,188.889328 
z"/>
<path fill="#3B718C" opacity="1.000000" stroke="none" 
	d="
M163.922501,187.772705 
	C176.057083,186.139725 184.348038,194.707169 181.609787,205.560745 
	C179.802536,212.724106 174.009705,216.778992 166.311951,216.268936 
	C159.185989,215.796768 154.001251,211.104736 153.061844,204.277969 
	C151.987350,196.469528 155.779495,190.525162 163.922501,187.772705 
z"/>
<path fill="#3C718C" opacity="1.000000" stroke="none" 
	d="
M330.985962,207.251236 
	C330.986420,205.140976 330.986420,203.481735 330.986420,200.324951 
	C326.578552,206.114151 322.291229,210.197311 317.852295,201.004227 
	C315.998444,205.365158 316.959503,208.982788 316.839081,212.465347 
	C316.757996,214.810974 316.468018,216.115952 313.605377,216.104980 
	C310.717560,216.093903 310.910645,214.466644 310.917084,212.566437 
	C310.941864,205.253113 310.900513,197.939453 310.956268,190.626480 
	C310.964325,189.570160 310.331177,188.051071 311.790619,187.572006 
	C313.102631,187.141357 313.775146,188.506485 314.525665,189.321579 
	C316.664307,191.644241 318.898285,193.903870 320.804626,196.409058 
	C322.888763,199.147858 324.495056,199.603546 326.765289,196.528748 
	C328.828308,193.734619 331.371735,191.292984 333.730499,188.720825 
	C334.381897,188.010498 335.069855,187.075836 336.214447,187.702393 
	C337.082825,188.177734 336.838898,189.157349 336.840454,189.950333 
	C336.855957,197.762329 336.787231,205.575119 336.882996,213.385956 
	C336.912262,215.771851 335.689789,215.994934 333.775665,216.064240 
	C331.579926,216.143707 330.797302,215.329010 330.957367,213.185242 
	C331.093140,211.367020 330.985413,209.530609 330.985962,207.251236 
z"/>
<path fill="#4F7F97" opacity="1.000000" stroke="none" 
	d="
M231.560272,151.953171 
	C232.501740,149.959610 234.227234,149.171753 233.089844,146.443329 
	C230.859268,141.092499 232.416214,137.204941 237.529984,133.596252 
	C241.755478,130.614395 244.868881,126.515587 248.672592,123.114120 
	C254.327011,118.057678 255.311935,111.020042 255.973465,104.026352 
	C258.564758,76.631409 249.367355,54.055599 228.081482,36.492764 
	C227.355469,35.893734 226.281296,35.519218 226.339645,34.242920 
	C227.877838,32.819324 228.732742,34.418858 229.642914,35.098461 
	C259.962830,57.737560 267.909851,104.754059 246.397430,136.063126 
	C244.281906,133.839493 245.596069,132.065674 247.021469,130.033615 
	C247.557663,129.465805 247.877747,129.144592 248.156311,128.789886 
	C248.567932,128.265778 248.451920,129.101486 248.400146,128.457199 
	C248.381851,128.229370 247.968445,128.261246 248.141251,128.451950 
	C248.339142,128.670334 248.268234,128.870361 247.679626,129.302429 
	C245.052704,132.081146 242.327148,134.240997 239.466843,136.249924 
	C236.900116,138.052628 235.484146,140.408661 235.686676,143.923492 
	C240.425400,142.290970 240.619110,136.228119 245.766022,135.810226 
	C243.767731,143.097458 238.127136,147.496292 232.877136,152.606934 
	C232.270096,152.674789 231.951874,152.564041 231.560272,151.953171 
z"/>
<path fill="#3F748E" opacity="1.000000" stroke="none" 
	d="
M23.118309,214.590942 
	C23.068254,205.236847 23.068254,196.346252 23.068254,187.455643 
	C23.489195,187.260559 23.910133,187.065475 24.331074,186.870392 
	C28.905277,192.116852 33.479481,197.363297 38.920490,203.603958 
	C38.920490,198.256470 38.961758,194.188690 38.901348,190.122421 
	C38.875069,188.353485 39.727669,187.775024 41.335506,187.892471 
	C42.749943,187.995804 44.639946,187.473328 44.655041,189.776123 
	C44.713249,198.657806 44.678658,207.540100 44.678658,216.422150 
	C44.233715,216.594528 43.788773,216.766907 43.343830,216.939285 
	C38.863438,211.979813 34.383045,207.020340 28.921000,200.974243 
	C28.921000,205.383911 28.938292,208.439941 28.917145,211.495712 
	C28.880997,216.719177 28.493366,216.952637 23.118309,214.590942 
z"/>
<path fill="#3B718C" opacity="1.000000" stroke="none" 
	d="
M235.997818,216.018875 
	C231.851776,216.677765 230.648331,215.280685 230.834091,211.474335 
	C231.165833,204.677536 230.997452,197.851883 230.890869,191.040604 
	C230.855331,188.769119 231.442139,187.614700 233.931885,187.832733 
	C235.746277,187.991638 237.586502,187.826080 239.412323,187.889145 
	C247.768936,188.177841 253.228928,193.588577 253.332077,201.646652 
	C253.438736,209.979080 247.989410,215.622696 239.457535,215.999680 
	C238.462311,216.043655 237.463821,216.014236 235.997818,216.018875 
z"/>
<path fill="#3B718C" opacity="1.000000" stroke="none" 
	d="
M199.422028,212.744720 
	C197.556534,210.065201 197.114090,205.172577 194.384216,205.697876 
	C191.119675,206.326035 193.276169,210.722473 193.008881,213.424301 
	C192.776062,215.777939 191.727478,215.997314 189.834503,216.059372 
	C187.607498,216.132431 187.006500,215.207535 187.031036,213.119522 
	C187.118835,205.649628 187.065186,198.178101 187.067032,190.707184 
	C187.067368,189.357025 186.981384,187.882309 188.940125,187.906982 
	C192.917160,187.957123 197.013596,187.505569 200.841141,188.308273 
	C206.360580,189.465805 208.819733,197.597763 204.607834,201.556717 
	C201.283508,204.681396 202.093124,206.796799 204.048889,209.729111 
	C205.220428,211.485657 206.095047,213.440231 207.319901,215.706955 
	C203.948868,216.028824 200.951843,217.062805 199.422028,212.744720 
z"/>
<path fill="#3B718C" opacity="1.000000" stroke="none" 
	d="
M265.869324,208.128418 
	C271.937775,211.633606 272.838196,211.262894 273.089600,205.050278 
	C273.184113,202.715561 273.843658,201.904419 276.242767,201.848557 
	C279.009003,201.784164 279.169098,203.257935 279.024231,205.277695 
	C278.976807,205.938995 279.016785,206.606583 279.017853,207.271301 
	C279.030762,215.304581 275.621674,217.814819 267.599762,215.678650 
	C259.968048,213.646378 255.665634,205.484741 258.030121,197.525116 
	C260.196259,190.233154 268.586243,185.874619 275.985718,187.906281 
	C278.419342,188.574509 277.999054,190.048019 277.975769,191.683563 
	C277.937469,194.375610 276.236328,193.875488 274.518219,193.622238 
	C270.691345,193.058136 267.061737,193.492386 264.869324,197.125671 
	C262.685791,200.744293 263.039307,204.414825 265.869324,208.128418 
z"/>
<path fill="#3A708B" opacity="1.000000" stroke="none" 
	d="
M300.620789,215.491821 
	C298.151733,212.768021 291.604797,211.696335 290.045105,214.051300 
	C288.100739,216.987152 285.781433,215.705444 282.638672,215.947906 
	C286.630981,206.093018 290.435913,196.700653 294.757538,186.032883 
	C299.027130,196.466873 302.862915,205.840698 306.826660,215.527206 
	C304.707489,216.289505 302.825134,216.048401 300.620789,215.491821 
z"/>
<path fill="#3B718C" opacity="1.000000" stroke="none" 
	d="
M350.007080,216.018982 
	C344.602356,216.837128 342.440247,215.303360 342.935883,209.796234 
	C343.485382,203.690506 343.152985,197.495270 343.018555,191.343094 
	C342.964447,188.867249 343.545593,187.613754 346.310669,187.819824 
	C348.957642,188.017105 351.634613,187.949585 354.291351,187.834854 
	C356.372406,187.744980 357.268616,188.416428 357.253235,190.644348 
	C357.238312,192.802567 356.454529,193.707901 354.328430,193.571686 
	C353.335022,193.508041 352.330200,193.629425 351.335693,193.574356 
	C349.263245,193.459595 348.924591,194.658340 348.882568,196.394455 
	C348.837067,198.276199 349.462921,199.037964 351.435608,199.073975 
	C353.453064,199.110794 356.284241,197.865906 356.220306,201.991150 
	C356.163452,205.659897 353.744659,204.865646 351.763763,204.812820 
	C349.626526,204.755844 348.860138,205.490051 348.859741,207.682983 
	C348.859283,210.178299 350.275391,210.283142 352.080994,210.221100 
	C353.243774,210.181122 354.410278,210.256348 355.573761,210.227112 
	C357.733093,210.172852 357.847321,211.579544 357.882477,213.214417 
	C357.919769,214.951431 357.591766,216.145721 355.471497,216.028198 
	C353.813263,215.936279 352.145508,216.015701 350.007080,216.018982 
z"/>
<path fill="#3B718C" opacity="1.000000" stroke="none" 
	d="
M53.169563,187.875824 
	C56.475616,187.862961 59.305058,187.952347 62.125580,187.832230 
	C64.196915,187.744019 65.113762,188.351547 65.077011,190.613602 
	C65.043098,192.700851 64.460289,193.760559 62.249393,193.572739 
	C61.424747,193.502686 60.585732,193.615677 59.757835,193.567184 
	C57.787933,193.451813 56.698963,194.046173 56.652458,196.318939 
	C56.604729,198.651520 57.700275,199.076218 59.689388,199.062500 
	C61.636875,199.049042 64.079102,198.128662 64.087448,201.868851 
	C64.095490,205.470764 61.848827,204.878540 59.778595,204.833435 
	C57.865719,204.791779 56.681076,205.135620 56.645874,207.501358 
	C56.603836,210.327042 58.325500,210.137405 60.233231,210.248383 
	C62.577007,210.384720 66.084404,208.934616 65.596420,213.638519 
	C65.579300,213.803528 65.648109,214.023605 65.564560,214.128937 
	C62.377354,218.147278 58.018974,215.175095 54.274521,215.956436 
	C52.747097,216.275146 50.878521,216.443192 50.908817,213.722748 
	C50.997646,205.745560 50.945827,197.766815 50.947998,189.788681 
	C50.948315,188.621078 51.431522,187.901276 53.169563,187.875824 
z"/>
<path fill="#538299" opacity="1.000000" stroke="none" 
	d="
M217.937347,111.191238 
	C217.845322,110.922279 218.003296,110.499817 218.059921,110.281616 
	C223.416016,106.511398 225.489029,101.559547 223.922821,95.410156 
	C222.415054,89.490189 218.062775,86.375694 212.355392,84.924553 
	C209.573349,84.217186 206.750153,84.328239 203.914291,84.467781 
	C202.438812,84.540367 200.774490,84.790535 199.502060,84.245178 
	C195.144745,82.377647 191.201492,80.766243 186.240036,83.411873 
	C184.032593,84.588951 180.812378,82.484398 179.455643,79.559990 
	C178.533539,77.572403 178.659714,75.627594 180.237503,74.014793 
	C182.453888,71.749229 185.672318,71.598106 187.538147,73.331367 
	C192.349243,77.800644 195.628372,76.256973 198.845490,71.704308 
	C199.160538,71.258453 199.951996,71.102905 200.555786,70.928589 
	C200.824585,70.850983 201.176575,71.061470 203.189682,71.572250 
	C200.651978,73.608681 198.811447,75.108498 196.946472,76.577255 
	C193.639221,79.181870 195.451645,80.726418 198.168930,81.736473 
	C200.879532,82.744041 203.762573,82.174774 206.586411,82.084473 
	C215.916916,81.786102 223.794891,86.904976 226.018784,94.697998 
	C228.085190,101.939232 225.000198,107.288612 219.315002,111.879066 
	C218.610764,111.929131 218.291458,111.746819 217.937347,111.191238 
z"/>
<path fill="#4F7F97" opacity="1.000000" stroke="none" 
	d="
M144.781799,77.323563 
	C145.250000,76.894417 145.510254,76.769508 145.921936,76.501785 
	C153.597275,74.966461 156.222870,71.347900 154.608154,63.648739 
	C153.693390,59.287025 152.183762,55.019836 150.616135,50.832081 
	C148.003098,43.851624 149.961304,38.176857 155.058807,33.220558 
	C155.296844,32.989105 155.561081,32.784306 155.816177,32.570724 
	C157.996246,30.745338 159.950607,28.040995 158.542328,25.706354 
	C157.009338,23.164942 154.558899,26.277214 152.449753,26.540535 
	C151.973206,26.600035 151.525345,26.889318 150.692108,27.112930 
	C149.790497,27.494066 149.357132,27.398777 149.026245,26.472488 
	C159.748825,20.632580 171.049667,18.248074 183.029922,19.477137 
	C178.069839,21.300791 172.746719,20.780521 167.639191,21.895779 
	C163.770264,22.740578 160.223465,22.981552 160.690704,28.500673 
	C160.880142,30.738152 158.991455,32.708073 157.138840,34.256592 
	C151.588425,38.895996 150.506836,44.607437 152.985489,51.271801 
	C154.369049,54.991829 155.738312,58.754494 156.637634,62.609089 
	C158.226120,69.417412 156.459625,73.863892 151.073975,77.444588 
	C149.121292,78.066299 147.432556,78.483536 145.370392,78.895912 
	C144.648514,78.532227 144.504303,78.104530 144.781799,77.323563 
z"/>
<path fill="#4D7D96" opacity="1.000000" stroke="none" 
	d="
M210.745773,56.273327 
	C213.092743,51.524548 215.282288,47.239185 217.406967,42.921886 
	C220.540176,36.555363 222.203903,29.859598 222.105453,22.711752 
	C222.040588,18.002983 221.409592,13.580845 216.717422,11.233673 
	C213.085342,9.416789 209.344208,9.240364 205.967133,12.083172 
	C201.588867,15.768728 199.159729,20.357723 200.355438,26.140959 
	C201.289886,30.660498 203.741074,34.095192 209.159241,34.755272 
	C210.052872,34.463398 210.527817,34.558338 210.939835,35.494713 
	C206.126343,37.136932 202.431076,35.480663 199.905960,30.955067 
	C195.663116,23.350986 199.264954,12.460837 207.195572,8.914886 
	C214.657837,5.578344 222.920258,10.445963 223.979492,18.936340 
	C225.035492,27.400696 223.337540,35.468075 219.677658,43.079342 
	C217.238647,48.151676 214.404572,53.034046 211.475586,58.225540 
	C210.682266,57.988396 210.467438,57.412666 210.745773,56.273327 
z"/>
<path fill="#3F748E" opacity="1.000000" stroke="none" 
	d="
M226.009369,214.008820 
	C224.347992,215.732162 213.437607,216.761292 212.044189,215.771103 
	C211.069916,215.078735 211.257019,214.015106 211.254715,213.050110 
	C211.237259,205.744537 211.292542,198.438400 211.215256,191.133606 
	C211.192001,188.936386 211.694748,187.818680 214.234085,187.781067 
	C216.939194,187.740967 217.106461,189.127228 217.075302,191.185028 
	C216.999893,196.164978 217.250122,201.157516 216.982895,206.124191 
	C216.804626,209.437653 217.922333,210.539917 221.172119,210.261475 
	C223.450974,210.066238 226.582382,209.282303 226.009369,214.008820 
z"/>
<path fill="#4F7F97" opacity="1.000000" stroke="none" 
	d="
M210.665344,56.056549 
	C210.981522,56.408707 211.030853,56.993225 211.142029,58.013695 
	C209.930176,61.304008 208.761185,65.309601 205.940186,65.704750 
	C203.384796,66.062683 202.484375,61.792385 201.026947,59.502399 
	C196.305389,52.083626 191.042435,44.918953 188.479324,36.339111 
	C186.427338,29.470207 185.807816,22.615881 189.548798,16.033653 
	C190.345444,14.631954 190.869965,12.923030 192.826675,12.594959 
	C192.984100,12.889738 193.328400,13.295057 193.247284,13.416679 
	C186.040436,24.223253 188.953781,34.696068 194.473053,44.935143 
	C197.150604,49.902370 200.510178,54.498856 203.263901,59.429127 
	C205.370850,63.201416 206.909592,63.073017 208.652267,59.307568 
	C209.138489,58.256985 209.811279,57.292751 210.665344,56.056549 
z"/>
<path fill="#467A93" opacity="1.000000" stroke="none" 
	d="
M170.159332,89.587845 
	C170.148315,94.762711 169.926208,99.562698 170.091766,104.349266 
	C170.328522,111.193581 168.100449,116.966743 163.431686,121.921806 
	C161.284485,124.200699 159.065674,126.474205 157.852386,129.452133 
	C156.968246,131.622147 156.037750,133.939636 158.012238,135.925812 
	C159.857697,137.782196 161.996155,136.843262 164.378510,135.930176 
	C165.274353,135.579636 165.703644,135.688568 166.006866,136.576462 
	C162.892838,139.279526 159.483490,140.138016 156.504379,137.296616 
	C153.455124,134.388290 154.814621,130.806183 156.495529,127.699783 
	C157.663574,125.541191 159.183411,123.475647 160.916595,121.738136 
	C166.451263,116.189674 168.563202,109.549957 168.098389,101.844704 
	C167.859253,97.880630 168.002396,93.893501 167.932281,89.448517 
	C168.950012,86.347069 168.692230,83.108910 172.192566,80.263153 
	C171.334412,83.968803 170.727890,86.587883 170.159332,89.587845 
z"/>
<path fill="#4D7D96" opacity="1.000000" stroke="none" 
	d="
M166.304642,136.868607 
	C165.739624,136.676727 165.498077,136.393524 165.000610,135.988220 
	C166.166046,134.479126 167.947815,133.312286 168.950897,131.669846 
	C176.102417,119.960045 187.531570,116.988892 200.059296,115.973038 
	C206.046707,115.487526 211.879791,114.221848 217.500931,111.020432 
	C218.140869,111.121445 218.436432,111.320610 218.864166,111.755203 
	C218.408829,112.448761 217.821304,112.906898 217.077881,113.601250 
	C210.091751,117.123276 202.682159,118.033722 195.301880,118.777664 
	C185.622543,119.753349 177.407990,122.996307 171.816284,131.496185 
	C170.485641,133.518890 168.378220,135.030563 166.304642,136.868607 
z"/>
<path fill="#4D7D96" opacity="1.000000" stroke="none" 
	d="
M206.190369,154.180252 
	C205.326797,153.574875 204.786530,152.926559 204.504456,152.180634 
	C202.223679,146.149292 197.525772,144.617783 192.003220,148.131378 
	C189.142990,149.951126 187.095169,152.603714 184.897781,155.088135 
	C181.918243,158.456863 178.437378,160.717758 173.816040,161.127670 
	C170.089798,161.458191 166.833313,162.879227 164.495422,166.180634 
	C164.326920,162.476273 166.754929,160.324890 169.703110,160.059753 
	C177.715561,159.339203 182.732498,154.520294 187.854431,149.046844 
	C193.931564,142.552612 200.680847,142.593475 204.951935,148.035263 
	C206.087158,149.481659 205.948746,151.162888 206.885864,152.925995 
	C206.882767,153.544006 206.758041,153.818039 206.190369,154.180252 
z"/>
<path fill="#538299" opacity="1.000000" stroke="none" 
	d="
M148.682404,26.138151 
	C149.286652,26.357815 149.540787,26.637383 150.057434,27.034992 
	C141.610168,31.958422 133.328720,37.368561 125.946365,44.116562 
	C131.648956,35.959740 139.545349,30.532301 148.682404,26.138151 
z"/>
<path fill="#4F7F97" opacity="1.000000" stroke="none" 
	d="
M214.314972,164.862961 
	C213.700790,164.627060 213.440475,164.348480 212.914276,163.952408 
	C219.061264,160.315414 225.395859,156.677048 231.200958,151.627014 
	C231.679565,151.666977 231.872284,151.880829 232.326645,152.440125 
	C227.377136,157.931763 221.255295,161.721939 214.314972,164.862961 
z"/>
<path fill="#4F7F97" opacity="1.000000" stroke="none" 
	d="
M211.297333,35.822956 
	C210.668976,35.617081 210.375702,35.323460 209.787598,34.911377 
	C215.517365,29.282810 214.666687,24.031307 207.111237,20.091120 
	C210.431107,18.993385 212.444168,19.718025 214.218765,22.649609 
	C216.458374,26.349386 215.407913,31.664171 211.297333,35.822956 
z"/>
<path fill="#4D7D96" opacity="1.000000" stroke="none" 
	d="
M206.674316,153.496674 
	C210.325974,155.026657 213.983093,151.259659 218.346329,154.379837 
	C213.588852,154.571686 210.086197,157.061386 205.963440,154.558685 
	C205.945312,154.086731 206.143219,153.905029 206.674316,153.496674 
z"/>
<path fill="#4F7F97" opacity="1.000000" stroke="none" 
	d="
M196.598557,8.991940 
	C197.817810,7.698838 199.084061,6.891122 200.676910,6.091319 
	C201.348389,6.467624 201.502472,6.899358 201.215240,7.692050 
	C200.050644,8.529572 199.107468,9.079133 197.854706,9.741417 
	C197.245270,9.728535 196.945404,9.602930 196.598557,8.991940 
z"/>
<path fill="#4A7C95" opacity="1.000000" stroke="none" 
	d="
M201.325256,7.952977 
	C200.994186,7.562048 200.994553,7.144083 200.999207,6.412674 
	C201.960510,6.230023 203.379272,4.704476 203.788269,6.484352 
	C204.067596,7.699964 202.374329,7.403834 201.325256,7.952977 
z"/>
<path fill="#4D7D96" opacity="1.000000" stroke="none" 
	d="
M217.429916,154.751404 
	C218.492752,153.397171 219.019012,154.334274 219.455597,155.110382 
	C219.595703,155.359421 219.375412,156.115799 219.136230,156.220581 
	C218.133698,156.659805 217.889755,155.722641 217.429916,154.751404 
z"/>
<path fill="#4F7F97" opacity="1.000000" stroke="none" 
	d="
M197.316345,9.502786 
	C196.734665,10.432654 195.969131,11.868196 194.928787,10.939053 
	C193.981186,10.092745 195.239487,9.430322 196.222305,8.684707 
	C196.730240,8.721517 196.908890,8.936475 197.316345,9.502786 
z"/>
<path fill="#4D7D96" opacity="1.000000" stroke="none" 
	d="
M144.620361,77.041962 
	C144.999847,77.450706 145.000412,77.862259 144.998993,78.582428 
	C136.968063,80.517830 132.328445,87.185074 125.836517,91.277161 
	C130.246445,84.306976 136.022278,79.036072 144.620361,77.041962 
z"/>
<path fill="#D3EBEC" opacity="1.000000" stroke="none" 
	d="
M118.805992,135.224777 
	C118.193047,134.975159 118.038086,134.783066 117.973961,134.322296 
	C117.582565,133.627853 117.533836,132.995422 117.086166,132.225449 
	C112.829964,125.994141 110.718445,119.210335 109.016617,112.255730 
	C108.355530,109.554146 109.220627,108.197739 112.094818,107.949837 
	C116.134155,107.601440 120.109734,107.601341 123.796303,109.505890 
	C127.502327,111.420486 128.188354,114.211327 125.960304,117.736809 
	C125.428711,118.577950 124.775772,119.342896 124.172066,120.137894 
	C119.976906,125.662216 120.060135,127.981010 124.869133,133.126129 
	C126.812149,135.204971 128.912842,137.124985 129.186996,140.567688 
	C126.490562,142.598404 124.867973,140.360825 123.099602,139.119995 
	C121.630302,138.089035 120.642479,136.449493 118.805992,135.224777 
z"/>
<path fill="#EDF1F3" opacity="1.000000" stroke="none" 
	d="
M118.615089,135.410477 
	C122.804276,135.273941 124.439560,140.136551 128.816666,140.929382 
	C130.444214,143.090729 129.264832,144.993011 128.479752,147.550995 
	C124.297417,144.092026 121.557114,139.898193 118.615089,135.410477 
z"/>
<path fill="#EDF1F3" opacity="1.000000" stroke="none" 
	d="
M116.911980,132.325195 
	C117.212463,132.511276 117.569527,132.998901 117.947380,133.809036 
	C117.634964,133.629959 117.301758,133.128342 116.911980,132.325195 
z"/>
<path fill="#F2F5F7" opacity="1.000000" stroke="none" 
	d="
M168.749756,210.288208 
	C164.008545,210.643997 160.921646,208.936203 159.516724,204.726227 
	C158.369156,201.287460 159.060364,198.103455 161.624054,195.575638 
	C164.210007,193.025818 167.364273,192.426453 170.772232,193.885666 
	C174.416275,195.445999 176.054291,198.448212 175.834793,202.195175 
	C175.592972,206.322617 173.690216,209.465637 168.749756,210.288208 
z"/>
<path fill="#EDF1F3" opacity="1.000000" stroke="none" 
	d="
M248.246536,128.841644 
	C247.338287,131.332947 246.383209,133.403763 245.738373,135.745636 
	C246.048615,136.016693 246.010635,136.005554 246.017090,136.024094 
	C242.663284,136.821793 242.206421,140.343262 240.111847,142.328598 
	C238.689896,143.676407 237.450119,145.216431 236.097321,146.705246 
	C233.199692,142.474319 233.797089,139.217575 237.975494,135.830170 
	C240.917572,133.445023 243.883987,131.089905 247.101120,128.509308 
	C247.641724,128.338531 247.920731,128.379852 248.246536,128.841644 
z"/>
<path fill="#EDF1F3" opacity="1.000000" stroke="none" 
	d="
M247.583923,128.549469 
	C247.707108,127.846901 247.910782,127.007202 248.686218,127.532494 
	C248.896729,127.675095 248.712906,128.399796 248.501709,129.059723 
	C248.130600,129.108643 247.967880,128.955170 247.583923,128.549469 
z"/>
<path fill="#F2F5F7" opacity="1.000000" stroke="none" 
	d="
M236.767593,195.196686 
	C240.024124,192.426651 242.906647,193.680344 245.157486,196.012558 
	C247.992554,198.950180 248.035370,202.644394 246.320190,206.219910 
	C244.859512,209.264908 242.130020,210.236511 238.875061,210.213791 
	C236.585693,210.197800 236.678894,208.683487 236.679169,207.152908 
	C236.679871,203.325516 236.694778,199.498138 236.767593,195.196686 
z"/>
<path fill="#E4EBEF" opacity="1.000000" stroke="none" 
	d="
M194.181015,193.449646 
	C195.733521,193.424500 196.913742,193.333633 198.029724,193.559738 
	C199.953278,193.949463 200.877625,195.320557 200.480667,197.202393 
	C199.959625,199.672546 197.948257,199.847488 195.839493,199.912750 
	C193.823914,199.975143 192.615402,199.430267 192.859665,197.166061 
	C192.995255,195.909286 192.425507,194.475006 194.181015,193.449646 
z"/>
<path fill="#D3EBEC" opacity="1.000000" stroke="none" 
	d="
M294.904572,201.765274 
	C295.523285,202.683517 295.964844,203.400040 296.153412,204.177887 
	C296.431366,205.324524 297.890991,206.650406 296.177673,207.622726 
	C295.430176,208.046921 294.045013,208.082855 293.318939,207.660263 
	C291.679688,206.706177 293.070862,205.339584 293.340851,204.204529 
	C293.559723,203.284454 294.174896,202.458618 294.904572,201.765274 
z"/>
<path fill="#F2F5F7" opacity="1.000000" stroke="none" 
	d="
M189.125244,76.616592 
	C190.109131,77.845131 191.856720,78.703491 189.886169,79.995193 
	C187.670242,81.447739 185.263077,81.946648 182.889633,80.429901 
	C181.582428,79.594536 180.688599,78.272743 181.141708,76.614906 
	C181.639938,74.792023 183.231979,74.718948 184.769485,74.761292 
	C186.308289,74.803658 187.697678,75.278557 189.125244,76.616592 
z"/>
</svg>